<svg width="48.967728" height="43.939453" viewBox="0 0 48.9677 43.9395" fill="none" xmlns="http://www.w3.org/2000/svg" xmlns:xlink="http://www.w3.org/1999/xlink">
	<desc>
			Created with Pixso.
	</desc>
	<defs/>
	<path id="Combined Shape" d="M4.12213 32.8633C4.60545 29.7715 3.25319 26.6016 1.79811 23.6855C1.20682 22.502 0.60524 21.3594 0.101364 20.2793C-0.0014801 20.0566 -0.0271759 19.8027 0.0293732 19.5605L0.949738 15.7031C1.03714 15.3301 1.31479 15.0312 1.67984 14.916C3.64911 14.2969 9.93735 12.0625 10.5029 8.7793C10.5132 8.71289 10.5492 8.65625 10.5955 8.60938L15.9582 3.41211C16.092 3.2832 16.3079 3.29883 16.4262 3.44336C16.9301 4.08008 18.3337 5.49609 20.4212 4.79883L19.7733 4.14258C19.6448 4.01758 19.65 3.81055 19.7785 3.6875L22.231 1.35938C22.2876 1.30273 22.3647 1.27148 22.447 1.27148L29.923 1.27148C30.1904 1.27148 30.3394 1.58789 30.1698 1.79492L27.7686 4.72656C27.6504 4.875 27.6812 5.09375 27.8406 5.19727C28.6941 5.75391 31.1878 7.39453 32.7252 8.40234C33.5068 8.91406 34.5609 8.59375 34.9155 7.72461C35.3115 6.75781 35.6816 5.25391 35.6868 3.01367C35.6868 2.97852 35.692 2.9375 35.7073 2.90039L36.746 0.201172C36.8436 -0.046875 37.183 -0.0722656 37.3167 0.160156C37.8258 1.05078 38.7358 2.9375 38.7358 5.13867L39.2345 4.77734C39.3734 4.67383 39.5687 4.70508 39.6716 4.83984L40.7616 6.26758C40.8079 6.32812 40.8284 6.41211 40.8233 6.48828C40.7513 7.25977 40.5508 11.5039 44.258 13.2051C44.3248 13.2363 44.3814 13.2891 44.4122 13.3555L48.9369 22.4551C48.9575 22.502 48.9677 22.5488 48.9677 22.5996L48.9677 26.4316C48.9677 27.0156 48.7209 27.5684 48.2838 27.957C46.51 29.5391 41.8722 33.9277 41.5894 36.9688C41.574 37.1289 41.4403 37.2539 41.2758 37.2539L33.3011 37.2539C33.2497 37.2539 33.1983 37.2422 33.152 37.2168C32.6378 36.9375 29.923 33.3594 29.3729 29.8906C29.3317 29.6309 29.0078 29.5332 28.8279 29.7305L27.0436 31.7148C26.8791 31.9023 26.6427 32.0059 26.3958 32.0059C26.1232 32.0059 25.8919 31.8086 25.8457 31.5391C25.64 30.3301 24.7248 27.166 20.8891 27.166C18.8324 27.166 15.6292 27.9609 12.6573 28.8613C12.6573 28.8613 9.36662 29.8945 6.93462 33.2051C6.85236 33.3184 6.71867 33.3848 6.57471 33.3848L4.56946 33.3848C4.29181 33.3848 4.08099 33.1367 4.12213 32.8633ZM39.0031 43.7676C39.5739 44.1562 40.3503 43.8555 40.5199 43.1895L41.3683 39.8281C41.4352 39.5645 41.2397 39.3105 40.9673 39.3105L35.26 39.3105C34.9155 39.3105 34.7253 39.709 34.936 39.9785C36.3706 41.8086 37.9543 43.0547 39.0031 43.7676Z" clip-rule="evenodd" fill="#0E8784" fill-opacity="1.000000" fill-rule="evenodd"/>
</svg>
