<svg width="51.559250" height="49.955078" viewBox="0 0 51.5592 49.9551" fill="none" xmlns="http://www.w3.org/2000/svg" xmlns:xlink="http://www.w3.org/1999/xlink">
	<desc>
			Created with Pixso.
	</desc>
	<defs/>
	<path id="Combined Shape" d="M28.2744 5.04883L23.2848 5.88281L20.79 3.38672L22.8308 0L28.2744 0.0605469L28.2744 5.04883ZM22.4532 10.8711L18.1472 12.5977L12.474 7.54492L15.8004 4.2168L22.4532 10.8711ZM44.0748 32.4922L39.0852 35.8184L44.9064 38.3145L44.0748 43.3027L37.422 43.3027L33.264 49.9551L29.9376 43.3027L24.948 39.9766L22.4532 44.1348L2.4948 34.1562L0 26.6719L2.78586 23.9121L0.831604 15.8594L7.48441 8.375L18.2952 19.1875L21.6216 15.8594L27.4428 19.1875L24.948 22.5137L21.6216 29.166L27.4428 31.6602L29.9376 35.8184L32.4324 30.8301L29.106 26.6719L32.4324 24.1758L35.7588 27.502L39.0852 24.1758L44.0748 29.166L44.0748 32.4922ZM29.4478 14.7617L26.1264 12.3457L26.7301 9.62891L32.4324 9.20898L39.9168 15.0293L38.2536 20.0176L35.7588 21.6816L33.264 20.0176L33.264 17.5234L30.7692 14.1973L29.4478 14.7617ZM50.7277 35.8184L49.0645 35.8184C48.6052 35.8184 48.2328 35.4473 48.2328 34.9863C48.2328 34.5273 48.6052 34.1562 49.0645 34.1562L50.7277 34.1562C51.1869 34.1562 51.5592 34.5273 51.5592 34.9863C51.5592 35.4473 51.1869 35.8184 50.7277 35.8184ZM49.0645 47.4609L47.4012 47.4609C46.942 47.4609 46.5696 47.0879 46.5696 46.6289C46.5696 46.1699 46.942 45.7988 47.4012 45.7988L49.0645 45.7988C49.5237 45.7988 49.8961 46.1699 49.8961 46.6289C49.8961 47.0879 49.5237 47.4609 49.0645 47.4609Z" clip-rule="evenodd" fill="#0E8784" fill-opacity="1.000000" fill-rule="evenodd"/>
</svg>
